<mxfile host="65bd71144e">
    <diagram id="hJ9pau-2M-x1soKYDdIP" name="第 1 页">
        <mxGraphModel dx="625" dy="370" grid="0" gridSize="10" guides="1" tooltips="1" connect="1" arrows="1" fold="1" page="0" pageScale="1" pageWidth="4681" pageHeight="3300" math="0" shadow="0">
            <root>
                <mxCell id="0"/>
                <mxCell id="1" parent="0"/>
                <mxCell id="2" value="&lt;font style=&quot;font-size: 20px;&quot;&gt;应用层常见协议概览&lt;/font&gt;" style="text;html=1;strokeColor=none;fillColor=none;align=center;verticalAlign=middle;whiteSpace=wrap;rounded=0;" vertex="1" parent="1">
                    <mxGeometry x="245" y="111" width="208" height="30" as="geometry"/>
                </mxCell>
                <mxCell id="3" value="HTTP&lt;br&gt;（超文本传输协议）&lt;br&gt;" style="rounded=1;whiteSpace=wrap;html=1;fontSize=20;fillColor=#60a917;strokeColor=#2D7600;fontColor=#ffffff;" vertex="1" parent="1">
                    <mxGeometry x="63" y="154" width="185" height="60" as="geometry"/>
                </mxCell>
                <mxCell id="4" value="SMTP&lt;br&gt;（简单邮件传输传输协议）" style="rounded=1;whiteSpace=wrap;html=1;fontSize=20;fillColor=#e1d5e7;strokeColor=#9673a6;" vertex="1" parent="1">
                    <mxGeometry x="272" y="154" width="244" height="60" as="geometry"/>
                </mxCell>
                <mxCell id="5" value="POP3/IMAP&lt;br&gt;（邮件接收协议）" style="rounded=1;whiteSpace=wrap;html=1;fontSize=20;fillColor=#d5e8d4;strokeColor=#82b366;" vertex="1" parent="1">
                    <mxGeometry x="540" y="154" width="185" height="60" as="geometry"/>
                </mxCell>
                <mxCell id="6" value="FTP&lt;br&gt;（文件传输协议）" style="rounded=1;whiteSpace=wrap;html=1;fontSize=20;fillColor=#ffe6cc;strokeColor=#d79b00;" vertex="1" parent="1">
                    <mxGeometry x="63" y="241" width="185" height="60" as="geometry"/>
                </mxCell>
                <mxCell id="7" value="Telnet&lt;br&gt;（远程登陆协议）" style="rounded=1;whiteSpace=wrap;html=1;fontSize=20;fillColor=#d5e8d4;strokeColor=#82b366;" vertex="1" parent="1">
                    <mxGeometry x="272" y="241" width="185" height="60" as="geometry"/>
                </mxCell>
                <mxCell id="8" value="SSH&lt;br&gt;（安全的网络传输协议）" style="rounded=1;whiteSpace=wrap;html=1;fontSize=20;fillColor=#ffe6cc;strokeColor=#d79b00;" vertex="1" parent="1">
                    <mxGeometry x="481" y="241" width="248" height="60" as="geometry"/>
                </mxCell>
                <mxCell id="9" value="RTP&lt;br&gt;（实时传输协议）" style="rounded=1;whiteSpace=wrap;html=1;fontSize=20;fillColor=#1ba1e2;strokeColor=#006EAF;fontColor=#ffffff;" vertex="1" parent="1">
                    <mxGeometry x="173" y="331" width="185" height="60" as="geometry"/>
                </mxCell>
                <mxCell id="10" value="DNS&lt;br&gt;（域名管理系统）" style="rounded=1;whiteSpace=wrap;html=1;fontSize=20;fillColor=#6d8764;strokeColor=#3A5431;fontColor=#ffffff;" vertex="1" parent="1">
                    <mxGeometry x="400" y="331" width="185" height="60" as="geometry"/>
                </mxCell>
            </root>
        </mxGraphModel>
    </diagram>
</mxfile>